<svg xmlns="http://www.w3.org/2000/svg" viewBox="0 0 32 32">
  <!-- Green rounded square background -->
  <rect width="32" height="32" rx="6" fill="#207d20"/>
  <!-- Bank icon (Bootstrap Icons bi-bank, 16x16 path) scaled to fill with padding -->
  <path fill="white" transform="translate(4,4) scale(1.5)"
    d="M8 .95 14.61 4h.89a.5.5 0 0 1 .5.5v1a.5.5 0 0 1-.5.5H15v7a.5.5 0 0 1 .485.379l.5 2A.5.5 0 0 1 15.5 16h-15a.5.5 0 0 1-.485-.621l.5-2A.5.5 0 0 1 1 13V6H.5a.5.5 0 0 1-.5-.5v-1A.5.5 0 0 1 .5 4h.89L8 .95zM3.776 4h8.447L8 2.05 3.776 4zM2 6v7h1V6H2zm2 0v7h2.5V6H4zm3.5 0v7h1V6h-1zm2 0v7H12V6H9.5zM13 6v7h1V6h-1zm2-1V4.5H1V5h14zm-.39 9H1.39l-.25-1h13.72l-.25 1z"/>
</svg>
